<svg xmlns="http://www.w3.org/2000/svg" viewBox="0 0 46 44"><defs><style>.a{fill:#34cabe;}</style></defs><g transform="translate(0 0)"><path class="a" d="M-8455.155-2260.769a26.025,26.025,0,0,1,1.982,1.975,1.168,1.168,0,0,1,.283,1.128.805.805,0,0,1-.991.564,1.083,1.083,0,0,1-.566-.282q-2.333-2.328-4.67-4.655c.142-.141.142-.141.142-.282l4.386-4.373a1.085,1.085,0,0,1,1.274-.282.779.779,0,0,1,.424,1.128c-.141.282-.141.423-.424.564l-1.7,1.693c-.141.141-.283.282-.283.282,1.133.282,2.406.423,3.539.705a18.174,18.174,0,0,1,12.737,22.427,18.083,18.083,0,0,1-11.889,12.413,17.166,17.166,0,0,1-5.379.846h-20.381a1.04,1.04,0,0,1-1.132-1.128,1.008,1.008,0,0,1,1.132-.988h19.955a15.943,15.943,0,0,0,10.332-3.667,15.89,15.89,0,0,0,6.086-12.553,16.064,16.064,0,0,0-12.879-15.939,6.218,6.218,0,0,1-1.979.424Z" transform="translate(8477.802 2267.06)"/></g><path class="a" d="M-8462.414-2263.8l.709,1.974s-10.331,2.4-11.606,14.81c-.991,10.015,8.634,15.375,8.634,15.375h-3.68s-8.209-5.642-7.218-15.939C-8474.443-2259.851-8462.414-2263.8-8462.414-2263.8Z" transform="translate(8478.691 2268.398)"/><path class="a" d="M-8456.6-2236.849l4.246-2.116h7.644c-.85-.846-1.7-1.692-2.408-2.539a.884.884,0,0,1,.284-1.128,1.336,1.336,0,0,1,1.274-.141c1.415,1.129,4.953,4.8,4.953,4.8a58.448,58.448,0,0,1-5.093,4.937c-.567.282-1.983-.706-1.276-1.552a29.018,29.018,0,0,1,2.266-2.257Z" transform="translate(8486.606 2276.992)"/></svg>