<svg xmlns="http://www.w3.org/2000/svg" viewBox="0 0 20.93 20"><defs><style>.a{fill:#fff;}</style></defs><g transform="translate(0 -9.558)"><path class="a" d="M20.93,21.82v7.738H16.444v-7.22c0-1.814-.649-3.051-2.273-3.051a2.455,2.455,0,0,0-2.3,1.641,3.07,3.07,0,0,0-.149,1.094v7.536H7.233s.06-12.228,0-13.495h4.487v1.913c-.009.014-.021.03-.029.044h.029v-.044a4.455,4.455,0,0,1,4.044-2.23C18.717,15.746,20.93,17.675,20.93,21.82ZM2.539,9.558a2.338,2.338,0,1,0-.06,4.664h.03a2.339,2.339,0,1,0,.03-4.664Zm-2.273,20H4.752V16.063H.267Z"/></g></svg>