<svg xmlns="http://www.w3.org/2000/svg" viewBox="0 0 133.747 25"><defs><style>.a,.b{fill:#f6f6f6;}.a{stroke:#f6f6f6;stroke-width:0.5px;}</style></defs><g transform="translate(5647 -12910)"><g transform="translate(-5647 12910)"><g transform="translate(29.188 6.492)"><path class="a" d="M48.513,10.5H46.7V23H57.075V21.188H48.513Z" transform="translate(-46.7 -10.43)"/><path class="a" d="M73.5,17.313,78.75,13l-.25-.438C77.625,11.188,76,10.5,73.688,10.5c-2,0-3.5.5-4.375,1.563A7,7,0,0,0,68,16.75c0,2.188.438,3.688,1.313,4.688A5.629,5.629,0,0,0,73.688,23c2,0,3.5-.5,4.375-1.5l.438-.438-1.438-1.125-.375.438a3.825,3.825,0,0,1-3,.938A7.758,7.758,0,0,1,72,21.125a2.5,2.5,0,0,1-1.125-.625,2.782,2.782,0,0,1-.75-1.313,10.858,10.858,0,0,1-.312-2.438,8.164,8.164,0,0,1,.313-2.438A2.782,2.782,0,0,1,70.875,13,2.5,2.5,0,0,1,72,12.375a7.758,7.758,0,0,1,1.688-.188,5.454,5.454,0,0,1,2.563.5L70.625,17.25H73.5Z" transform="translate(-54.687 -10.43)"/><path class="a" d="M94.738,19.688,90.3,10.5h-2L94.738,23l6.438-12.5h-2Z" transform="translate(-62.3 -10.43)"/><rect class="a" width="1.875" height="12.5" transform="translate(42 0.07)"/><path class="a" d="M130.088,10.5c-2,0-3.5.5-4.375,1.563-.937,1-1.312,2.563-1.312,4.688,0,2.188.438,3.688,1.313,4.688A5.629,5.629,0,0,0,130.088,23c2,0,3.5-.5,4.375-1.563a7,7,0,0,0,1.313-4.688A7.3,7.3,0,0,0,134.463,12,5.705,5.705,0,0,0,130.088,10.5Zm3.563,8.688a2.781,2.781,0,0,1-.75,1.313,2.5,2.5,0,0,1-1.125.625,7.688,7.688,0,0,1-3.375,0,2.573,2.573,0,0,1-1.875-1.938,10.858,10.858,0,0,1-.313-2.438,8.163,8.163,0,0,1,.313-2.438,2.782,2.782,0,0,1,.75-1.313,2.5,2.5,0,0,1,1.125-.625,7.688,7.688,0,0,1,3.375,0A2.5,2.5,0,0,1,132.9,13a2.781,2.781,0,0,1,.75,1.313,10.859,10.859,0,0,1,.313,2.438A10.859,10.859,0,0,1,133.65,19.188Z" transform="translate(-75.837 -10.43)"/><path class="a" d="M157.75,17.27a6.351,6.351,0,0,0-2.25-1.125c-.813-.187-1.625-.375-2.438-.625a4.932,4.932,0,0,1-1.875-.75,1.031,1.031,0,0,1-.563-.938c0-.813.313-1.75,2.813-1.75a4.485,4.485,0,0,1,2.938.75l.438.375,1.25-1.188-.437-.438a6.169,6.169,0,0,0-4.25-1.188,5.654,5.654,0,0,0-3.188.813,2.828,2.828,0,0,0-1.375,2.625,2.844,2.844,0,0,0,1.063,2.188,6.206,6.206,0,0,0,2.25,1.063c.813.188,1.625.375,2.438.625a4.369,4.369,0,0,1,1.813.813,1.228,1.228,0,0,1,.562,1.063c0,.125,0,.563-.812,1.125a5.844,5.844,0,0,1-2.875.563,4.891,4.891,0,0,1-3.063-.75l-.438-.313L148.5,21.4l.438.438a5.578,5.578,0,0,0,1.938.938,10.858,10.858,0,0,0,2.438.313,7.658,7.658,0,0,0,3.938-.875,2.869,2.869,0,0,0,1.5-2.5A2.778,2.778,0,0,0,157.75,17.27Z" transform="translate(-84.874 -10.387)"/><path class="a" d="M179.488,17.27a7.6,7.6,0,0,0-2.25-1.125c-.812-.187-1.625-.375-2.438-.625a4.932,4.932,0,0,1-1.875-.75,1.031,1.031,0,0,1-.562-.938c0-.813.313-1.75,2.813-1.75a4.485,4.485,0,0,1,2.938.75l.438.375,1.25-1.188-.438-.438a6.169,6.169,0,0,0-4.25-1.188,5.654,5.654,0,0,0-3.188.813,2.828,2.828,0,0,0-1.375,2.625,2.844,2.844,0,0,0,1.063,2.188,6.206,6.206,0,0,0,2.25,1.063c.813.188,1.625.375,2.438.625a4.369,4.369,0,0,1,1.813.813,1.289,1.289,0,0,1,.625,1.063c0,.125,0,.563-.813,1.125a5.844,5.844,0,0,1-2.875.563,4.891,4.891,0,0,1-3.063-.75l-.437-.313L170.3,21.4l.438.438a5.578,5.578,0,0,0,1.938.938,10.859,10.859,0,0,0,2.438.313,7.658,7.658,0,0,0,3.938-.875,2.893,2.893,0,0,0,1.5-2.563A2.947,2.947,0,0,0,179.488,17.27Z" transform="translate(-93.049 -10.387)"/><path class="a" d="M195.788,23H204.6l-7.25-12.5L190.1,23h2.188l5.063-9.375,4.125,7.563h-5.688Z" transform="translate(-100.474 -10.43)"/></g><path class="b" d="M21.875,6.5V18.813L11.063,25ZM0,18.813V6.5L10.813,25Zm4.938-9.75h7.938V6.125H.188L10.938,0l8.5,4.875L10.875,19.5Z"/></g></g></svg>