<svg xmlns="http://www.w3.org/2000/svg" viewBox="0 0 78.788 40"><defs><style>.a{fill:#34cabe;}</style></defs><g transform="translate(-338 -1225)"><path class="a" d="M47.3,11.477A5.745,5.745,0,0,0,44.538,10.3c-2.073-.338-4.146-.675-6.219-.844a2.018,2.018,0,0,1-1.9-1.35c-.691-1.35-1.209-2.532-1.9-3.882-.345-.675-.691-1.519-1.036-2.194A3.363,3.363,0,0,0,30.546,0h0a3.414,3.414,0,0,0-3.109,2.025L24.155,8.439a2.309,2.309,0,0,1-1.209,1.013c-2.246.506-4.664.675-6.909,1.013h-.345a3.392,3.392,0,0,0-2.937,2.194,3.374,3.374,0,0,0,1.036,3.376A15.828,15.828,0,0,1,16.209,18.4a31.562,31.562,0,0,1,2.418,2.363,1.912,1.912,0,0,1,.691,2.025c-.345,1.519-.518,2.869-.864,4.388-.173.675-.173,1.519-.345,2.194a3.166,3.166,0,0,0,1.209,3.544,3.675,3.675,0,0,0,1.9.675,2.967,2.967,0,0,0,1.727-.506c.691-.338,1.555-.844,2.246-1.181,1.209-.675,2.591-1.35,3.8-2.025a1.6,1.6,0,0,1,2.073,0l4.664,2.532c.518.338,1.036.506,1.555.844.518.169.864.338,1.382.506h0a3.8,3.8,0,0,0,2.764-1.181,3.339,3.339,0,0,0,.691-2.194.925.925,0,0,0-.518-.844c-.345-.169-1.036-.338-1.036-.169-.518.338-.691.506-.691.844-.173.338-.345,1.013-.518,1.013a1.734,1.734,0,0,1-1.036-.338l-1.209-.675c-1.727-.844-3.282-1.688-4.837-2.532a4,4,0,0,0-4.318,0,48.652,48.652,0,0,1-5.873,3.038,1.43,1.43,0,0,1-1.382.169,1.507,1.507,0,0,1-.173-1.35c.345-2.194.691-4.388,1.209-6.414a3.9,3.9,0,0,0-1.209-3.882c-1.555-1.35-3.109-2.869-5.182-4.895A2.361,2.361,0,0,1,15,13.333a.953.953,0,0,1,.864-.506c2.246-.338,4.664-.675,6.909-1.013h.518a2.96,2.96,0,0,0,2.591-2.025V9.62c1.209-2.025,2.246-4.219,3.282-6.245A1.166,1.166,0,0,1,30.2,2.7a1.528,1.528,0,0,1,.864.675,19.968,19.968,0,0,1,1.382,2.7c.691,1.181,1.209,2.532,1.9,3.713a4.452,4.452,0,0,0,2.418,1.857,44.348,44.348,0,0,0,4.664.675c.864.169,1.9.169,2.764.338.691,0,1.209.338,1.209.506.173.169-.173.844-.518,1.181-.864,1.013-1.9,1.857-2.937,2.869A27.214,27.214,0,0,0,39.7,19.409a1.222,1.222,0,0,0-.345,1.013,1.126,1.126,0,0,0,.691.844,1.873,1.873,0,0,0,1.382-.169c1.9-1.857,3.8-3.544,5.7-5.4.173,0,.173-.169.345-.169a3.078,3.078,0,0,0,.864-2.025A3.819,3.819,0,0,0,47.3,11.477Z" transform="translate(347.315 1225)"/><path class="a" d="M25.448,18.514h0a3.345,3.345,0,0,0-2.073-1.688c-.864-.169-1.727-.338-2.764-.506-.691-.169-1.382-.169-2.073-.338a2.2,2.2,0,0,1-1.209-.844c-.691-1.181-1.209-2.363-1.9-3.544l-.345-.506a1.808,1.808,0,0,0-1.209-1.519,2.7,2.7,0,0,0-3.455,1.519,4.206,4.206,0,0,1-.691,1.181L8.174,15.307a3.1,3.1,0,0,1-1.209.844,44.348,44.348,0,0,1-4.664.675A2.618,2.618,0,0,0,.056,18.514a2.371,2.371,0,0,0,.864,2.7L2.129,22.4a17.067,17.067,0,0,0,1.9,1.688,1.912,1.912,0,0,1,.691,2.025c-.345,1.519-.518,3.038-.864,4.388h0a3.27,3.27,0,0,0,1.209,2.532,2.745,2.745,0,0,0,2.591.169c.518-.338,1.209-.506,1.727-.844A13.9,13.9,0,0,1,12.147,31a1.934,1.934,0,0,1,1.382,0c1.382.675,2.764,1.35,3.973,2.025a2.83,2.83,0,0,0,1.555.506,2.448,2.448,0,0,0,1.555-.506,2.371,2.371,0,0,0,.864-2.7c-.173-.675-.173-1.35-.345-2.025s-.173-1.35-.345-2.194a1.875,1.875,0,0,1,.518-1.857,19.439,19.439,0,0,0,3.282-3.207A2.6,2.6,0,0,0,25.448,18.514ZM18.539,25.94l.173.506c.173,1.35.518,2.532.691,3.882v.506h-.518a39.34,39.34,0,0,1-3.8-1.857,3.711,3.711,0,0,0-4.146,0c-.864.506-1.727.844-2.591,1.35-.518.169-.864.338-1.382.506A1.36,1.36,0,0,1,6.447,31h0v-.338c.345-1.857.691-3.376.864-4.895a3.253,3.253,0,0,0-1.036-3.207c-1.209-1.013-2.246-2.025-3.455-3.207-.173-.169-.345-.338-.345-.506a.766.766,0,0,1,.518-.169,44.347,44.347,0,0,1,4.664-.675h.173a2.739,2.739,0,0,0,2.591-1.857c.518-.844.864-1.688,1.382-2.7a7.3,7.3,0,0,1,.691-1.181c.173-.169.345-.506.518-.675.173.169.345.506.518.675a33.394,33.394,0,0,1,1.727,3.544,2.951,2.951,0,0,0,2.937,2.194c1.382.169,2.937.338,4.491.675.173,0,.345.169.518.169a.367.367,0,0,1-.345.338l-.864.844L19.575,22.4A3.657,3.657,0,0,0,18.539,25.94Z" transform="translate(338.077 1231.465)"/><path class="a" d="M56.248,18.446h0a3.345,3.345,0,0,0-2.073-1.688c-.864-.169-1.727-.338-2.764-.506-.691-.169-1.382-.169-2.073-.338a2.2,2.2,0,0,1-1.209-.844c-.691-1.181-1.209-2.363-1.9-3.544l-.345-.506A2.648,2.648,0,0,0,44.5,9.669a2.574,2.574,0,0,0-3.282,1.35,4.206,4.206,0,0,1-.691,1.181l-1.555,3.038a3.1,3.1,0,0,1-1.209.844,44.347,44.347,0,0,1-4.664.675,2.618,2.618,0,0,0-2.246,1.688,2.371,2.371,0,0,0,.864,2.7l1.209,1.181a17.067,17.067,0,0,0,1.9,1.688,1.912,1.912,0,0,1,.691,2.025c-.345,1.519-.518,3.038-.864,4.388h0a3.27,3.27,0,0,0,1.209,2.532,2.745,2.745,0,0,0,2.591.169c.518-.338,1.209-.506,1.727-.844a13.9,13.9,0,0,1,2.764-1.35,1.934,1.934,0,0,1,1.382,0c1.382.675,2.764,1.35,3.973,2.025a2.83,2.83,0,0,0,1.555.506,2.448,2.448,0,0,0,1.555-.506,2.371,2.371,0,0,0,.864-2.7c-.173-.675-.173-1.35-.345-2.025s-.173-1.35-.345-2.194a1.875,1.875,0,0,1,.518-1.857,19.438,19.438,0,0,0,3.282-3.207A2.6,2.6,0,0,0,56.248,18.446Zm-7.082,7.426.173.506c.173,1.35.518,2.532.691,3.882v.506h-.518a39.339,39.339,0,0,1-3.8-1.857,3.711,3.711,0,0,0-4.146,0c-.864.506-1.727.844-2.591,1.35a4.357,4.357,0,0,0-1.209.675,1.36,1.36,0,0,1-.518.169h0v-.338c.345-1.857.691-3.376.864-4.895a3.253,3.253,0,0,0-1.036-3.207c-1.209-1.013-2.246-2.025-3.455-3.207-.173-.169-.345-.338-.345-.506a.766.766,0,0,1,.518-.169,44.348,44.348,0,0,1,4.664-.675h.173a2.739,2.739,0,0,0,2.591-1.857c.518-.844.864-1.688,1.382-2.7a7.3,7.3,0,0,1,.691-1.181c.173-.169.345-.506.518-.675.173.169.345.506.518.675a33.4,33.4,0,0,1,1.727,3.544,2.951,2.951,0,0,0,2.937,2.194c1.382.169,2.937.338,4.491.675.173,0,.345.169.518.169a.367.367,0,0,1-.345.338l-.864.844L50.375,22.5A3.8,3.8,0,0,0,49.166,25.872Z" transform="translate(360.48 1231.533)"/></g></svg>