<svg xmlns="http://www.w3.org/2000/svg" viewBox="0 0 60 40"><defs><style>.a{fill:#34cabe;}</style></defs><path class="a" d="M7556.05-8394.334l-7.677-8.479h-5.362a11.121,11.121,0,0,1-6.373-1.975l-.011-.013a1.029,1.029,0,0,1-.269-1.387.951.951,0,0,1,1.353-.307,9.308,9.308,0,0,0,5.313,1.627h5.776a1.029,1.029,0,0,1,.707.348l6.287,6.94v-6.208a1.056,1.056,0,0,1,.963-1.093h4.581a9.953,9.953,0,0,0,9.688-10.2,9.952,9.952,0,0,0-9.688-10.2h-4.386a1,1,0,0,1-.974-1.026,1,1,0,0,1,.974-1.027h4.386c6.435,0,11.65,5.491,11.663,12.265s-5.228,12.238-11.663,12.238h-3.594v7.813a1.029,1.029,0,0,1-.62.948,1.125,1.125,0,0,1-.366.065A1.006,1.006,0,0,1,7556.05-8394.334Zm-26.807-6.338a.938.938,0,0,1-.364-.076,1.01,1.01,0,0,1-.622-.95v-7.671h-3.594c-6.435,0-11.663-5.541-11.663-12.314s5.215-12.3,11.663-12.316h18.313c6.435,0,11.661,5.554,11.661,12.316s-5.226,12.314-11.661,12.314h-5.349l-7.677,8.416a.907.907,0,0,1-.662.282Zm-14.294-21c0,5.631,4.362,10.249,9.713,10.249h4.581a.933.933,0,0,1,.963.963v6.208l6.289-6.89a.94.94,0,0,1,.705-.281h5.776c5.361,0,9.711-4.632,9.711-10.262s-4.362-10.264-9.711-10.264h-18.313A10.028,10.028,0,0,0,7514.949-8421.671Zm17.975,6.079a1.12,1.12,0,0,1-.354-.885,1.192,1.192,0,0,1,.341-.847,1.129,1.129,0,0,1,.828-.332c.013,0,.025,0,.025-.013a1.132,1.132,0,0,1,1.083,1.179,1.181,1.181,0,0,1-.34.885,1.11,1.11,0,0,1-.781.321h-.043A1.122,1.122,0,0,1,7532.923-8415.592Zm.059-3.064a1.091,1.091,0,0,1-.267-.809,2.9,2.9,0,0,1,.72-2.028q.419-.46.876-.885c.328-.294.561-.524.707-.68a2.051,2.051,0,0,0,.364-.5,1.236,1.236,0,0,0,.148-.6,1.456,1.456,0,0,0-.453-1.077,1.641,1.641,0,0,0-1.168-.437,1.566,1.566,0,0,0-1.232.437,3.519,3.519,0,0,0-.669,1.308c-.171.6-.5.9-.976.9a.931.931,0,0,1-.718-.307.983.983,0,0,1-.294-.694,3,3,0,0,1,.463-1.539,3.624,3.624,0,0,1,1.353-1.295,4.2,4.2,0,0,1,2.072-.5,4.271,4.271,0,0,1,1.95.424,3.173,3.173,0,0,1,1.291,1.153,2.989,2.989,0,0,1,.463,1.6,2.534,2.534,0,0,1-.256,1.191,3.662,3.662,0,0,1-.623.888c-.243.256-.669.666-1.291,1.257-.146.14-.279.281-.413.437a1.239,1.239,0,0,0-.233.347,1.464,1.464,0,0,0-.121.307c-.025.1-.062.282-.123.553a.848.848,0,0,1-.9.819A.937.937,0,0,1,7532.982-8418.656Z" transform="translate(-7513 8434)"/></svg>