<svg xmlns="http://www.w3.org/2000/svg" viewBox="0 0 28.043 16"><defs><style>.a{fill:#fff;}</style></defs><g transform="translate(0 -117.748)"><path class="a" d="M27.895,132.2a1.923,1.923,0,0,0-.1-.183,14.535,14.535,0,0,0-2.789-3.227l-.029-.029-.015-.014-.015-.015h-.015q-.934-.891-1.183-1.2a1.124,1.124,0,0,1-.2-1.183,11.025,11.025,0,0,1,1.314-1.913q.6-.774.949-1.241Q28.34,119.838,28,118.9l-.087-.146a.854.854,0,0,0-.452-.241,2.3,2.3,0,0,0-.935-.036l-4.2.029a.545.545,0,0,0-.292.007l-.19.044-.073.037-.058.044a.649.649,0,0,0-.161.153,1,1,0,0,0-.146.256,23.842,23.842,0,0,1-1.562,3.285q-.54.905-.993,1.57a7.552,7.552,0,0,1-.759.978,5.294,5.294,0,0,1-.555.5q-.248.19-.379.161c-.088-.02-.17-.039-.248-.058a.971.971,0,0,1-.328-.358,1.6,1.6,0,0,1-.168-.57q-.044-.343-.051-.591t.007-.7q.015-.453.015-.613,0-.555.022-1.2t.037-1.029q.015-.38.015-.8a3.374,3.374,0,0,0-.051-.664,2.274,2.274,0,0,0-.153-.467.787.787,0,0,0-.3-.35,1.687,1.687,0,0,0-.489-.2,9.716,9.716,0,0,0-1.971-.19A9.579,9.579,0,0,0,10,118.1a1.967,1.967,0,0,0-.555.438q-.263.321-.073.35a1.79,1.79,0,0,1,1.241.628l.088.175a2.793,2.793,0,0,1,.2.672,6.777,6.777,0,0,1,.131,1.066,11.365,11.365,0,0,1,0,1.825q-.073.759-.139,1.183a2.368,2.368,0,0,1-.2.686,2.9,2.9,0,0,1-.175.321.251.251,0,0,1-.073.073,1.094,1.094,0,0,1-.394.073.925.925,0,0,1-.5-.2,3.5,3.5,0,0,1-.606-.562,7.514,7.514,0,0,1-.708-1q-.394-.642-.818-1.518l-.234-.424q-.219-.409-.6-1.19t-.672-1.511a.962.962,0,0,0-.35-.467L5.5,118.67a1,1,0,0,0-.234-.124,1.549,1.549,0,0,0-.336-.095l-4,.029a1.017,1.017,0,0,0-.832.278l-.058.088a.472.472,0,0,0-.044.234,1.163,1.163,0,0,0,.088.394q.876,2.059,1.905,3.972t1.789,3.081q.759,1.168,1.548,2.2t1.044,1.329q.256.292.4.438l.365.35a8.662,8.662,0,0,0,1.029.84,17.562,17.562,0,0,0,1.5.964,8.159,8.159,0,0,0,1.92.774,6.639,6.639,0,0,0,2.132.241H15.4a1.163,1.163,0,0,0,.774-.321l.058-.073a.968.968,0,0,0,.109-.27,1.484,1.484,0,0,0,.051-.4,4.811,4.811,0,0,1,.095-1.131,2.974,2.974,0,0,1,.248-.759,1.865,1.865,0,0,1,.314-.431,1.27,1.27,0,0,1,.249-.212.957.957,0,0,1,.116-.051.927.927,0,0,1,.825.226,4.847,4.847,0,0,1,.891.847q.416.5,1,1.131a6.871,6.871,0,0,0,1.022.935l.292.175a3.555,3.555,0,0,0,.76.321,1.636,1.636,0,0,0,.817.073l3.738-.058a1.694,1.694,0,0,0,.861-.183.724.724,0,0,0,.365-.4,1.131,1.131,0,0,0,.007-.5A1.832,1.832,0,0,0,27.895,132.2Z" transform="translate(0 0)"/></g></svg>